PathFileType	4	(X/Y/Z)	./resultDataOpenSim/trcMotMarkerGrf/sub06/qtm-02-03.trc
DataRate	CameraRate	NumFrames	NumMarkers	Units	OrigDataRate	OrigDataStartFrame	OrigNumFrames
250.000000	250.000000	5	24	m	250.000000	130	516
Frame#	Time	L.Toe.Tip			R.Toe.Tip			L.Ankle.Lat			R.Ankle.Lat			L.Ankle.Med			R.Ankle.Med			L.Heel			R.Heel			L.Knee.Lat			R.Knee.Lat			L.Knee.Med			R.Knee.Med			L.Thigh.Upper			R.Thigh.Upper			L.ASIS			R.ASIS			V.Sacral			L.Acromium			R.Acromium			C7			L.Elbow			R.Elbow			L.Wrist.Lat			R.Wrist.Lat
		X1	Y1	Z1	X2	Y2	Z2	X3	Y3	Z3	X4	Y4	Z4	X5	Y5	Z5	X6	Y6	Z6	X7	Y7	Z7	X8	Y8	Z8	X9	Y9	Z9	X10	Y10	Z10	X11	Y11	Z11	X12	Y12	Z12	X13	Y13	Z13	X14	Y14	Z14	X15	Y15	Z15	X16	Y16	Z16	X17	Y17	Z17	X18	Y18	Z18	X19	Y19	Z19	X20	Y20	Z20	X21	Y21	Z21	X22	Y22	Z22	X23	Y23	Z23	X24	Y24	Z24

130	0.516	-0.21615899	0.089981598	-0.075971775	-0.76831391	0.035354454	0.091571095	-0.34501625	0.092194248	-0.088743276	-0.90151448	0.065064339	0.10931885	-0.34037011	0.11091837	-0.004290653	-0.87909944	0.083225497	0.023129579	-0.40182166	0.045260256	-0.031800387	-0.95712976	0.044312323	0.045605546	-0.41707957	0.4594677	-0.095826426	-0.76028856	0.42698461	0.14750443	-0.42942391	0.44874424	0.027571748	-0.78987633	0.42903916	0.016169211	-0.60635925	0.80464894	-0.13427471	-0.69253187	0.79044154	0.2189866	-0.54713896	0.84531067	-0.076165907	-0.56854374	0.83146576	0.16920763	-0.73731388	0.91157322	0.037368743	-0.62296871	1.3220188	-0.14599048	-0.6147652	1.3144541	0.21480585	-0.69457557	1.3534202	0.035193155	-0.72352827	1.0208708	-0.19310592	-0.6491295	0.99761455	0.30059388	-0.60684991	0.81032364	-0.24669935	-0.41848637	0.90237856	0.31392834
131	0.52	-0.20018788	0.09310971	-0.074962326	-0.76817114	0.035304311	0.091534479	-0.32918992	0.092848799	-0.088890443	-0.90161173	0.065308001	0.10901246	-0.32555381	0.11153687	-0.0043721581	-0.87846496	0.083325457	0.022838806	-0.38541523	0.044653157	-0.032611415	-0.95686043	0.044940158	0.045307845	-0.40981389	0.45736634	-0.094951057	-0.75639756	0.42603386	0.14723221	-0.42256861	0.44622517	0.028601353	-0.78551317	0.42826456	0.01584379	-0.59923624	0.80214925	-0.13432198	-0.68682153	0.78895821	0.2187124	-0.54020606	0.84293235	-0.07627596	-0.56262715	0.82932549	0.16936448	-0.73245299	0.90988666	0.036559477	-0.61654424	1.3197969	-0.14616685	-0.60828706	1.3123922	0.21480749	-0.68822046	1.3514294	0.035124792	-0.71764642	1.0189096	-0.19285415	-0.64199362	0.99574858	0.30221794	-0.60282701	0.80778867	-0.24737697	-0.40935069	0.90269514	0.31299908
132	0.524	-0.18479169	0.096359207	-0.073945033	-0.768031	0.035252604	0.091488882	-0.31398654	0.093615174	-0.089052364	-0.90156636	0.065637567	0.10869076	-0.31138088	0.11216873	-0.0044214249	-0.87782658	0.083477163	0.02255765	-0.36939694	0.043952429	-0.033905038	-0.95657487	0.045623142	0.044983602	-0.40249646	0.4552399	-0.094026287	-0.75243842	0.42506503	0.14692467	-0.41564477	0.44374587	0.029649637	-0.78102922	0.4274866	0.015498452	-0.59213702	0.79957151	-0.13438476	-0.6797919	0.7867548	0.21780962	-0.5332058	0.84053413	-0.07637464	-0.55657325	0.82722555	0.16949985	-0.72761521	0.90830673	0.035774538	-0.61004884	1.3175796	-0.146329	-0.60177907	1.3103031	0.21479696	-0.68188176	1.3494444	0.03502906	-0.71169965	1.0169199	-0.19263647	-0.63474077	0.99381929	0.30365903	-0.59867933	0.80526413	-0.24803279	-0.40030432	0.90292646	0.31208871
133	0.528	-0.16999479	0.099609198	-0.0729475	-0.76789393	0.035200134	0.091434861	-0.29934706	0.094476831	-0.089160714	-0.90133508	0.066069545	0.10836879	-0.29783224	0.11276702	-0.0044349126	-0.87717363	0.083692994	0.022297159	-0.35380115	0.043212848	-0.035474498	-0.95627338	0.046363663	0.044634061	-0.39517731	0.45313873	-0.093061065	-0.74838962	0.42408777	0.14659602	-0.40867058	0.44134383	0.030716172	-0.77642227	0.42669624	0.015130866	-0.58505967	0.79695061	-0.13447485	-0.67091675	0.7833721	0.21607045	-0.52613977	0.83811902	-0.076468129	-0.55041247	0.8251659	0.16961635	-0.72219021	0.90665624	0.034923762	-0.60367692	1.3153823	-0.14652814	-0.59524632	1.3081943	0.2147654	-0.67550022	1.3474658	0.034917244	-0.70567659	1.0149074	-0.19244087	-0.62718427	0.99175072	0.30466188	-0.59435852	0.80276921	-0.24864914	-0.39138566	0.90308046	0.3112297
134	0.532	-0.1558355	0.10275415	-0.071956097	-0.76776308	0.035146526	0.091376825	-0.28522633	0.095391968	-0.089152325	-0.90097148	0.066593011	0.10805774	-0.28486427	0.11327104	-0.0044224075	-0.87647326	0.083969624	0.022039786	-0.33875	0.042539029	-0.036930057	-0.95595603	0.047176676	0.044246511	-0.3878313	0.45111693	-0.092072269	-0.74423997	0.42310223	0.14625864	-0.40167583	0.43905263	0.031788855	-0.77169139	0.42588764	0.014745307	-0.57788223	0.79432891	-0.13458566	-0.66086276	0.77913523	0.21382691	-0.51900718	0.83569171	-0.076560692	-0.54420542	0.82313857	0.16972817	-0.71600568	0.90486337	0.033894345	-0.5974521	1.3132082	-0.14677843	-0.58870082	1.3060754	0.21470843	-0.6690276	1.3455129	0.034795156	-0.69957434	1.0128766	-0.19226368	-0.61937821	0.98957164	0.30529053	-0.58991187	0.80027729	-0.24922276	-0.3826069	0.90315961	0.31041885
